<?xml version="1.0" encoding="UTF-8"?>
<svg id="Calque_1" xmlns="http://www.w3.org/2000/svg" xmlns:xlink="http://www.w3.org/1999/xlink" version="1.1" viewBox="0 0 500 500">
  <!-- Generator: Adobe Illustrator 29.1.0, SVG Export Plug-In . SVG Version: 2.1.0 Build 142)  -->
  <defs>
    <style>
      .st0 {
        fill: none;
      }

      .st1 {
        mask: url(#mask);
      }

      .st2 {
        fill: #d9d9d9;
      }

      .st3 {
        fill: #941b80;
      }

      .st4 {
        fill: #fff;
      }
    </style>
    <mask id="mask" x="-731" y="-19" width="1289" height="538" maskUnits="userSpaceOnUse">
      <g id="mask0_3648_3686">
        <rect class="st2" x="78" y="74" width="349" height="352"/>
      </g>
    </mask>
  </defs>
  <rect class="st4" width="500" height="500" rx="60" ry="60"/>
  <g class="st1">
    <rect class="st0" x="-731" y="-19" width="1289" height="538"/>
  </g>
  <path class="st3" d="M201.2,168.4c.6,1,1.7,1.6,2.8,1.6s1-.1,1.5-.4c1.5-.8,2.1-2.8,1.2-4.3l-22.1-40.2c-.8-1.5-2.8-2.1-4.3-1.2-1.5.8-2.1,2.8-1.2,4.3l22.1,40.2ZM172.8,116.7c.6,1,1.7,1.6,2.8,1.6s1-.1,1.5-.4c1.5-.8,2.1-2.8,1.2-4.3l-9-16.4c-.8-1.5-2.8-2.1-4.3-1.2-1.5.8-2.1,2.8-1.2,4.3l9,16.4ZM231.7,192.5c.4,1.4,1.6,2.4,3.1,2.4s.5,0,.8,0c1.7-.4,2.7-2.1,2.3-3.8l-25.4-99c-.4-1.7-2.1-2.7-3.8-2.3-1.7.4-2.7,2.1-2.3,3.8l25.4,99ZM209.8,177.5c-1.5.8-2.1,2.8-1.2,4.3l6.3,11.5c.6,1,1.7,1.6,2.8,1.6s1-.1,1.5-.4c1.5-.8,2.1-2.8,1.2-4.3l-6.3-11.5c-.8-1.5-2.8-2.1-4.3-1.2ZM198.4,200c.6.7,1.5,1,2.3,1s1.5-.3,2.2-.9c1.3-1.2,1.3-3.2.1-4.5l-57.4-61.2c-1.2-1.3-3.2-1.3-4.5-.1-1.3,1.2-1.3,3.2-.1,4.5l57.4,61.2ZM264,194.8c.3,0,.5,0,.8,0,1.4,0,2.7-.9,3.1-2.4l23.9-93c.4-1.7-.6-3.4-2.3-3.8-1.7-.4-3.4.6-3.8,2.3l-23.9,93c-.4,1.7.6,3.4,2.3,3.8ZM178.1,287.1c.4,0,.9,0,1.3-.3l13.3-6.3c1.6-.7,2.2-2.6,1.5-4.2-.7-1.6-2.6-2.2-4.2-1.5l-13.3,6.3c-1.6.7-2.2,2.6-1.5,4.2.5,1.1,1.7,1.8,2.9,1.8ZM191.3,234.3c1.3,0,2.6-.8,3-2.2.5-1.7-.4-3.4-2-4l-61.7-20.1c-1.7-.5-3.4.4-4,2-.5,1.7.4,3.4,2,4l61.7,20.1c.3.1.6.2,1,.2ZM164,287.1l-34.2,16.1c-1.6.7-2.3,2.6-1.5,4.2.5,1.1,1.7,1.8,2.9,1.8s.9,0,1.3-.3l34.2-16.1c1.6-.7,2.2-2.6,1.5-4.2-.7-1.6-2.6-2.3-4.2-1.5ZM194.4,260.7c-.3-1.7-2-2.8-3.7-2.5l-94.8,18.1c-1.7.3-2.8,2-2.5,3.7.3,1.5,1.6,2.6,3.1,2.6s.4,0,.6,0l94.8-18.1c1.7-.3,2.8-2,2.5-3.7ZM149.5,247l41.6,2.6c0,0,.1,0,.2,0,1.6,0,3-1.3,3.1-3,.1-1.7-1.2-3.2-2.9-3.3l-41.6-2.6c-1.7-.1-3.2,1.2-3.3,2.9-.1,1.7,1.2,3.2,2.9,3.3ZM305.1,215.1c.6.9,1.6,1.5,2.7,1.5s1.2-.2,1.7-.5l79.9-50.8c1.5-.9,1.9-2.9,1-4.3-.9-1.5-2.9-1.9-4.3-1l-79.9,50.8c-1.5.9-1.9,2.9-1,4.3ZM368.7,211.5c-.5-1.7-2.3-2.6-4-2l-57.5,18.7c-1.7.5-2.6,2.3-2,4,.4,1.3,1.7,2.2,3,2.2s.7,0,1-.2l57.5-18.7c1.7-.5,2.6-2.3,2-4ZM308,243.4c-1.7.1-3.1,1.6-2.9,3.3.1,1.7,1.5,3,3.1,3s.1,0,.2,0l34.5-2.2c1.7-.1,3.1-1.6,2.9-3.3-.1-1.7-1.6-3.1-3.3-2.9l-34.5,2.2ZM306.9,280.5l60.2,28.3c.4.2.9.3,1.3.3,1.2,0,2.3-.7,2.9-1.8.7-1.6,0-3.5-1.5-4.2l-60.2-28.3c-1.6-.7-3.5,0-4.2,1.5-.7,1.6,0,3.5,1.5,4.2ZM280.4,194.5c.5.3,1,.4,1.5.4,1.1,0,2.2-.6,2.8-1.6l18.7-34c.8-1.5.3-3.4-1.2-4.3-1.5-.8-3.4-.3-4.3,1.2l-18.7,34c-.8,1.5-.3,3.4,1.2,4.3ZM193.4,210.7l-13.7-8.7c-1.5-.9-3.4-.5-4.3,1-.9,1.5-.5,3.4,1,4.3l13.7,8.7c.5.3,1.1.5,1.7.5,1,0,2.1-.5,2.7-1.5.9-1.5.5-3.4-1-4.3ZM379.5,208c.4,1.3,1.7,2.2,3,2.2s.7,0,1-.2l22.1-7.2c1.7-.5,2.6-2.3,2-4-.5-1.7-2.3-2.6-4-2l-22,7.2c-1.7.5-2.6,2.3-2,4ZM311.1,184.8c.6.6,1.4.9,2.2.9s1.7-.3,2.3-1l29.4-31.3c1.2-1.3,1.1-3.3-.1-4.5-1.3-1.2-3.3-1.1-4.5.1l-29.4,31.3c-1.2,1.3-1.1,3.3.1,4.5ZM305.7,190.6c-1.3-1.2-3.3-1.1-4.5.1l-4.7,5c-1.2,1.3-1.1,3.3.1,4.5.6.6,1.4.9,2.2.9s1.7-.3,2.3-1l4.7-5c1.2-1.3,1.1-3.3-.1-4.5ZM307.3,145.6c.5.3,1,.4,1.5.4,1.1,0,2.2-.6,2.8-1.6l22.5-41c.8-1.5.3-3.4-1.2-4.3-1.5-.8-3.4-.3-4.3,1.2l-22.5,41c-.8,1.5-.3,3.4,1.2,4.3ZM289.2,304.5c-1.4,1-1.7,3-.7,4.4l16.8,23.1c.6.8,1.6,1.3,2.6,1.3s1.3-.2,1.9-.6c1.4-1,1.7-3,.7-4.4l-16.8-23.1c-1-1.4-3-1.7-4.4-.7ZM353.1,143.2c.8,0,1.7-.3,2.3-1l16.7-17.8c1.2-1.3,1.1-3.3-.1-4.5-1.3-1.2-3.3-1.1-4.5.1l-16.7,17.8c-1.2,1.3-1.1,3.3.1,4.5.6.6,1.4.9,2.2.9ZM114.1,167.8l50.6,32.1c.5.3,1.1.5,1.7.5,1,0,2.1-.5,2.7-1.5.9-1.5.5-3.4-1-4.3l-50.6-32.1c-1.5-.9-3.4-.5-4.3,1-.9,1.5-.5,3.4,1,4.3ZM309,391.1c-.6-1.6-2.5-2.4-4.1-1.8-1.6.6-2.4,2.5-1.8,4.1l6.1,15.4c.5,1.2,1.7,2,2.9,2s.8,0,1.2-.2c1.6-.6,2.4-2.5,1.8-4.1l-6.1-15.4ZM279.9,317.8l-4.1-10.4c-.6-1.6-2.5-2.4-4.1-1.8-1.6.6-2.4,2.5-1.8,4.1l4.1,10.4c.5,1.2,1.7,2,2.9,2s.8,0,1.2-.2c1.6-.6,2.4-2.5,1.8-4.1ZM264.5,366.7c1.7-.2,3-1.8,2.7-3.5l-6.9-54.9c-.2-1.7-1.8-3-3.5-2.7-1.7.2-3,1.8-2.7,3.5l6.9,54.9c.2,1.6,1.6,2.8,3.1,2.8s.3,0,.4,0ZM265.6,375.4c-1.7.2-3,1.8-2.7,3.5l4.1,32.1c.2,1.6,1.6,2.8,3.1,2.8s.3,0,.4,0c1.7-.2,2.9-1.8,2.7-3.5l-4.1-32.1c-.2-1.7-1.8-2.9-3.5-2.7ZM306.7,293.2c-1.3-1.1-3.3-.9-4.4.4-1.1,1.3-.9,3.3.4,4.4l67.3,55.7c.6.5,1.3.7,2,.7s1.8-.4,2.4-1.1c1.1-1.3.9-3.3-.4-4.4l-67.3-55.7ZM418.9,236.4l-62.7,3.9c-1.7.1-3.1,1.6-2.9,3.3.1,1.7,1.5,3,3.1,3s.1,0,.2,0l62.7-3.9c1.7-.1,3.1-1.6,2.9-3.3-.1-1.7-1.6-3.1-3.3-2.9ZM408.3,277.2l-99.5-19c-1.7-.3-3.4.8-3.7,2.5-.3,1.7.8,3.4,2.5,3.7l99.5,19c.2,0,.4,0,.6,0,1.5,0,2.8-1.1,3.1-2.6.3-1.7-.8-3.4-2.5-3.7ZM249.8,77.7c-1.7,0-3.2,1.4-3.2,3.2v23.8c0,1.7,1.4,3.1,3.2,3.1s3.1-1.4,3.1-3.1v-23.8c0-1.7-1.4-3.2-3.1-3.2ZM321.7,343.8c-1-1.4-3-1.7-4.4-.7-1.4,1-1.7,3-.7,4.4l23.5,32.4c.6.9,1.6,1.3,2.5,1.3s1.3-.2,1.9-.6c1.4-1,1.7-3,.7-4.4l-23.5-32.4ZM405.9,320.2l-22-10.4c-1.6-.7-3.5,0-4.2,1.5-.7,1.6,0,3.5,1.5,4.2l22,10.4c.4.2.9.3,1.3.3,1.2,0,2.3-.7,2.9-1.8.7-1.6,0-3.5-1.5-4.2ZM285.8,332.6c-.6-1.6-2.5-2.4-4.1-1.8-1.6.6-2.4,2.5-1.8,4.1l16.9,42.6c.5,1.2,1.7,2,2.9,2s.8,0,1.2-.2c1.6-.6,2.4-2.5,1.8-4.1l-16.9-42.6ZM197.3,293.6c-1.1-1.3-3.1-1.5-4.4-.4l-65.3,54c-1.3,1.1-1.5,3.1-.4,4.4.6.8,1.5,1.1,2.4,1.1s1.4-.2,2-.7l65.3-54c1.3-1.1,1.5-3.1.4-4.4ZM116.9,309.2l-21.7,10.2c-1.6.7-2.2,2.6-1.5,4.2.5,1.1,1.7,1.8,2.9,1.8s.9,0,1.3-.3l21.7-10.2c1.6-.7,2.2-2.6,1.5-4.2-.7-1.6-2.6-2.2-4.2-1.5ZM135.6,246.1c1.7,0,3-1.3,3.1-3,.1-1.7-1.2-3.2-2.9-3.3l-55.2-3.5c-1.7-.1-3.2,1.2-3.3,2.9-.1,1.7,1.2,3.2,2.9,3.3l55.2,3.5c0,0,.1,0,.2,0ZM87.7,200.8l26.5,8.6c.3.1.7.2,1,.2,1.3,0,2.6-.8,3-2.2.5-1.7-.4-3.4-2-4l-26.5-8.6c-1.7-.5-3.4.4-4,2-.5,1.7.4,3.4,2,4ZM162.8,364.6l-15.1,20.8c-1,1.4-.7,3.4.7,4.4.6.4,1.2.6,1.8.6,1,0,1.9-.5,2.6-1.3l15.1-20.8c1-1.4.7-3.4-.7-4.4-1.4-1-3.4-.7-4.4.7ZM210.3,304.5c-1.4-1-3.4-.7-4.4.7l-34,46.8c-1,1.4-.7,3.4.7,4.4.6.4,1.2.6,1.8.6,1,0,1.9-.4,2.6-1.3l34-46.8c1-1.4.7-3.4-.7-4.4ZM227.8,305.7c-1.6-.6-3.4.2-4.1,1.8l-13.5,34c-.6,1.6.2,3.4,1.8,4.1.4.1.8.2,1.2.2,1.3,0,2.4-.8,2.9-2l13.5-34c.6-1.6-.2-3.4-1.8-4.1ZM242.8,305.5c-1.7-.2-3.3,1-3.5,2.7l-14,110.9c-.2,1.7,1,3.3,2.7,3.5.1,0,.3,0,.4,0,1.6,0,2.9-1.2,3.1-2.8l14-110.9c.2-1.7-1-3.3-2.7-3.5ZM249.8,123.6c-1.7,0-3.2,1.4-3.2,3.2v65c0,1.7,1.4,3.2,3.2,3.2s3.1-1.4,3.1-3.2v-65c0-1.7-1.4-3.2-3.1-3.2ZM208.2,355.2c-1.6-.6-3.4.2-4.1,1.8l-19.6,49.5c-.6,1.6.2,3.5,1.8,4.1.4.2.8.2,1.2.2,1.3,0,2.4-.8,2.9-2l19.6-49.5c.6-1.6-.2-3.5-1.8-4.1Z"/>
</svg>